<mxfile host="app.diagrams.net" modified="2022-08-28T12:15:20.128Z" agent="5.0 (Windows)" etag="ILFTW60ibSxW4r0A21si" version="20.2.7" type="github">
  <diagram id="GFpi8RFFcyR_nqkeizuJ" name="Strona-1">
    <mxGraphModel dx="2062" dy="1140" grid="1" gridSize="10" guides="1" tooltips="1" connect="1" arrows="1" fold="1" page="1" pageScale="1" pageWidth="827" pageHeight="1169" math="0" shadow="0">
      <root>
        <mxCell id="0" />
        <mxCell id="1" parent="0" />
        <mxCell id="B8upwdmeaBDmH_59Xov7-10" value="" style="rounded=0;whiteSpace=wrap;html=1;fontSize=35;align=left;" vertex="1" parent="1">
          <mxGeometry x="350" y="120" width="420" height="500" as="geometry" />
        </mxCell>
        <mxCell id="B8upwdmeaBDmH_59Xov7-6" value="" style="rounded=0;whiteSpace=wrap;html=1;fontSize=30;" vertex="1" parent="1">
          <mxGeometry x="10" y="120" width="280" height="500" as="geometry" />
        </mxCell>
        <mxCell id="B8upwdmeaBDmH_59Xov7-1" value="&lt;font style=&quot;font-size: 35px;&quot;&gt;ZOO&lt;/font&gt;" style="rounded=0;whiteSpace=wrap;html=1;" vertex="1" parent="1">
          <mxGeometry x="370" y="20" width="120" height="60" as="geometry" />
        </mxCell>
        <mxCell id="B8upwdmeaBDmH_59Xov7-2" value="Generalnie myślałem, żeby zrobić coś takiego jak pokazała Karcia z kotami, czyli bardzo prosty interfejs z małą ilością opcji, ale rozgrywką mogącą trwać długo (ciężko jest to połączyć dlatego warto będzie pościągać i popróbować tego typu gry jak Cat Goes Fishing itp)" style="rounded=0;whiteSpace=wrap;html=1;" vertex="1" parent="1">
          <mxGeometry x="50" y="195" width="190" height="150" as="geometry" />
        </mxCell>
        <mxCell id="B8upwdmeaBDmH_59Xov7-3" value="Druga opcja o której myślałem to już bardziej zaawansowana gierka, z możliwością np poruszania się po mapie, jakimiś eventami może, tutaj generalnie pomysły są nieograniczone, główna różnica jest taka, że nie skupiamy się na prostocie rozgrywki tylko na dużej ilośći elementów" style="whiteSpace=wrap;html=1;" vertex="1" parent="1">
          <mxGeometry x="55" y="450" width="190" height="150" as="geometry" />
        </mxCell>
        <mxCell id="B8upwdmeaBDmH_59Xov7-4" value="&lt;font style=&quot;font-size: 30px;&quot;&gt;1&lt;/font&gt;" style="ellipse;whiteSpace=wrap;html=1;aspect=fixed;strokeWidth=2;fontFamily=Tahoma;spacingBottom=4;spacingRight=2;strokeColor=#d3d3d3;" vertex="1" parent="1">
          <mxGeometry x="120" y="130" width="50" height="50" as="geometry" />
        </mxCell>
        <mxCell id="B8upwdmeaBDmH_59Xov7-5" value="&lt;font style=&quot;font-size: 30px;&quot;&gt;2&lt;/font&gt;" style="ellipse;whiteSpace=wrap;html=1;aspect=fixed;strokeWidth=2;fontFamily=Tahoma;spacingBottom=4;spacingRight=2;strokeColor=#d3d3d3;" vertex="1" parent="1">
          <mxGeometry x="125" y="390" width="50" height="50" as="geometry" />
        </mxCell>
        <mxCell id="B8upwdmeaBDmH_59Xov7-8" value="Wstępny Plan" style="rounded=0;whiteSpace=wrap;html=1;fontSize=30;" vertex="1" parent="1">
          <mxGeometry x="10" y="80" width="280" height="40" as="geometry" />
        </mxCell>
        <mxCell id="B8upwdmeaBDmH_59Xov7-13" value="Plan 1 Szczegóły:" style="rounded=0;whiteSpace=wrap;html=1;fontSize=14;" vertex="1" parent="1">
          <mxGeometry x="350" y="120" width="210" height="60" as="geometry" />
        </mxCell>
        <mxCell id="B8upwdmeaBDmH_59Xov7-14" value="&lt;ol&gt;&lt;li&gt;Mamy swoje Zoo w którym sprzedajemy bilety,&lt;/li&gt;&lt;li&gt;Za pieniążki z biletów możemy kupić jedzenie dla zwierząt albo inne zwierzaki,&lt;/li&gt;&lt;li&gt;Jak nie karmimy zwierzaków to je tracimy&lt;/li&gt;&lt;li&gt;Dodałbym eventy w postaci, takiej jak to było w grze &quot;60&amp;nbsp; seconds&quot; czyli np zrób coś i może to przynieść pozytywny lub negatywny efekt,&lt;/li&gt;&lt;li&gt;Opcja levelowania zwierzątek? nie jestem tego pewien,&lt;/li&gt;&lt;li&gt;Może dodać jakąś forme kupowania reklam na to Zoo, generalnie w sklepie moglibyśmy się pobawić,&lt;/li&gt;&lt;li&gt;Dodawajcie swoje pomysły &lt;br&gt;&lt;/li&gt;&lt;/ol&gt;" style="rounded=0;whiteSpace=wrap;html=1;fontSize=14;" vertex="1" parent="1">
          <mxGeometry x="350" y="180" width="210" height="440" as="geometry" />
        </mxCell>
        <mxCell id="B8upwdmeaBDmH_59Xov7-15" value="Plan 1 Szczegóły:" style="rounded=0;whiteSpace=wrap;html=1;fontSize=14;" vertex="1" parent="1">
          <mxGeometry x="560" y="120" width="210" height="60" as="geometry" />
        </mxCell>
        <mxCell id="B8upwdmeaBDmH_59Xov7-16" value="&lt;ol&gt;&lt;li&gt;Założenia bardzo podobne co w pomyśle 1,&lt;/li&gt;&lt;li&gt;To co tutaj dodałbym, to np jakieś specjalne odmiany zwierząt,&lt;/li&gt;&lt;li&gt;Bardziej rozbudowany sklep,&lt;/li&gt;&lt;li&gt;Możliwość poruszania się po mapie, (do zastanowienia)&lt;/li&gt;&lt;li&gt;Może dodać jakieś auto do transportu i możliwości jeżdżenia po mapie&lt;/li&gt;&lt;li&gt;Wasze pomysły&lt;/li&gt;&lt;li&gt;Generalnie pomysł jest taki, żeby dodać jeszcze więcej rzeczy niż&amp;nbsp; w wersji pierwszej, myślę, że skończy się na hybrydzie jak już&lt;br&gt;&lt;/li&gt;&lt;/ol&gt;" style="rounded=0;whiteSpace=wrap;html=1;fontSize=14;" vertex="1" parent="1">
          <mxGeometry x="560" y="180" width="210" height="440" as="geometry" />
        </mxCell>
      </root>
    </mxGraphModel>
  </diagram>
</mxfile>
